<?xml version="1.0" encoding="UTF-8"?>
<svg version="1.1" xmlns="http://www.w3.org/2000/svg" width="256" height="256">
<path d="M0 0 C0.74072071 -0.00453111 1.48144143 -0.00906223 2.24460822 -0.01373065 C4.71007791 -0.02632306 7.17532522 -0.02475763 9.64082336 -0.02310181 C11.41546918 -0.02909038 13.19011239 -0.03589669 14.9647522 -0.04345703 C19.77492135 -0.06109313 24.5850193 -0.06581147 29.39521766 -0.0670886 C32.4046685 -0.06851239 35.41410137 -0.07278636 38.42354774 -0.07808304 C48.93478668 -0.09657712 59.44597495 -0.10475464 69.95722961 -0.10317993 C79.73485411 -0.10197949 89.51225752 -0.12306437 99.2898261 -0.15466726 C107.70028677 -0.18087667 116.11067546 -0.19154524 124.52117664 -0.19026911 C129.5372243 -0.18976075 134.5530755 -0.19537408 139.56908226 -0.21662521 C144.29125853 -0.23608571 149.01305256 -0.23607896 153.73524284 -0.22159195 C155.460488 -0.21951224 157.18575758 -0.22415433 158.91096115 -0.23631287 C174.54926711 -0.33931532 186.86978697 2.32305064 198.55220032 13.36898804 C206.93494348 22.23746024 211.65298956 32.64618513 211.5969696 44.93788147 C211.60150072 45.67860218 211.60603183 46.4193229 211.61070025 47.18248969 C211.62329267 49.64795938 211.62172723 52.11320669 211.62007141 54.57870483 C211.62605999 56.35335064 211.63286629 58.12799386 211.64042664 59.90263367 C211.65806273 64.71280282 211.66278108 69.52290077 211.66405821 74.33309913 C211.665482 77.34254997 211.66975597 80.35198284 211.67505264 83.36142921 C211.69354673 93.87266815 211.70172425 104.38385642 211.70014954 114.89511108 C211.69894909 124.67273558 211.72003397 134.45013899 211.75163686 144.22770756 C211.77784628 152.63816824 211.78851484 161.04855693 211.78723872 169.45905811 C211.78673035 174.47510577 211.79234369 179.49095697 211.81359482 184.50696373 C211.83305531 189.22914 211.83304856 193.95093403 211.81856155 198.67312431 C211.81648185 200.39836947 211.82112393 202.12363905 211.83328247 203.84884262 C211.93628492 219.48714858 209.27391897 231.80766844 198.22798157 243.49008179 C189.35950936 251.87282495 178.95078448 256.59087103 166.65908813 256.53485107 C165.91836742 256.53938219 165.17764671 256.5439133 164.41447991 256.54858172 C161.94901023 256.56117414 159.48376292 256.5596087 157.01826477 256.55795288 C155.24361896 256.56394146 153.46897575 256.57074776 151.69433594 256.57830811 C146.88416678 256.5959442 142.07406884 256.60066255 137.26387048 256.60193968 C134.25441963 256.60336347 131.24498676 256.60763744 128.23554039 256.61293411 C117.72430146 256.6314282 107.21311318 256.63960571 96.70185852 256.63803101 C86.92423403 256.63683056 77.14683062 256.65791544 67.36926204 256.68951833 C58.95880136 256.71572775 50.54841267 256.72639631 42.1379115 256.72512019 C37.12186384 256.72461182 32.10601264 256.73022516 27.09000587 256.75147629 C22.3678296 256.77093678 17.64603558 256.77093003 12.92384529 256.75644302 C11.19860013 256.75436332 9.47333055 256.7590054 7.74812698 256.77116394 C-7.89017898 256.87416639 -20.21069883 254.21180044 -31.89311218 243.16586304 C-40.27585535 234.29739083 -44.99390143 223.88866595 -44.93788147 211.5969696 C-44.94241258 210.85624889 -44.9469437 210.11552818 -44.95161211 209.35236138 C-44.96420453 206.8868917 -44.9626391 204.42164439 -44.96098328 201.95614624 C-44.96697185 200.18150043 -44.97377816 198.40685722 -44.9813385 196.63221741 C-44.9989746 191.82204825 -45.00369294 187.01195031 -45.00497007 182.20175195 C-45.00639386 179.1923011 -45.01066783 176.18286823 -45.01596451 173.17342186 C-45.03445859 162.66218293 -45.04263611 152.15099465 -45.0410614 141.63973999 C-45.03986096 131.8621155 -45.06094584 122.08471209 -45.09254873 112.30714351 C-45.11875814 103.89668283 -45.12942671 95.48629414 -45.12815058 87.07579297 C-45.12764222 82.05974531 -45.13325555 77.04389411 -45.15450668 72.02788734 C-45.17396718 67.30571107 -45.17396043 62.58391705 -45.15947342 57.86172676 C-45.15739371 56.1364816 -45.1620358 54.41121202 -45.17419434 52.68600845 C-45.27719679 37.04770249 -42.61483083 24.72718264 -31.56889343 13.04476929 C-22.70042123 4.66202612 -12.29169634 -0.05601996 0 0 Z " fill="#000000" transform="translate(44.67045593261719,-0.267425537109375)"/>
<path d="M0 0 C11.22 0 22.44 0 34 0 C34.99 6.435 34.99 6.435 36 13 C39.17564804 22.72542212 43.61389195 28.96561138 51 36 C51.56460938 36.5465625 52.12921875 37.093125 52.7109375 37.65625 C60.01658818 43.73811148 70.95868765 44.86983596 80 46 C80 57.22 80 68.44 80 80 C65.24052314 80 52.45214178 76.53261083 39.80786133 68.90161133 C38.90747635 68.35894119 38.00709137 67.81627106 37.079422 67.25715637 C36.39321274 66.84229477 35.70700348 66.42743317 35 66 C34.99635437 66.87901978 34.99270874 67.75803955 34.98895264 68.66369629 C34.9508145 77.01770064 34.89367444 85.37132478 34.81609726 93.72505951 C34.77687606 98.01805471 34.74456515 102.31085257 34.72900391 106.60400391 C34.71366777 110.76049119 34.67893073 114.91643496 34.63169098 119.07267761 C34.61704945 120.64474211 34.6089691 122.21688428 34.60811615 123.78901672 C34.58600566 144.14038707 29.78105972 161.76283705 15.3359375 176.82421875 C1.54219249 189.67223877 -14.49632476 194.68112059 -32.9375 194.3125 C-49.99858288 193.5462837 -64.55435753 184.252937 -76 172 C-85.69694727 158.38454703 -91.61548222 142.90198274 -90 126 C-86.71747397 108.44967616 -78.63042933 92.65216994 -64 82 C-50.81299863 74.01281746 -36.51148601 69.59614147 -21 71 C-17.97028034 74.02971966 -18.92585188 82.23794512 -18.90234375 86.25 C-18.90892276 88.5000209 -18.92074766 90.75003185 -18.9375 93 C-18.94201172 94.15628906 -18.94652344 95.31257813 -18.95117188 96.50390625 C-18.96287471 99.33599225 -18.97927004 102.16796811 -19 105 C-19.90532471 104.96874023 -20.81064941 104.93748047 -21.7434082 104.90527344 C-32.31241045 104.59829332 -39.77276946 106.02738986 -47.98046875 112.94140625 C-53.63944722 118.70984272 -55.31069112 124.50527164 -55.625 132.5 C-55.33582871 140.24510119 -53.58579671 145.98773717 -48.390625 151.80078125 C-46.67510343 153.3864583 -44.94018559 154.70113099 -43 156 C-42.10667969 156.61875 -42.10667969 156.61875 -41.1953125 157.25 C-35.41704035 160.70257755 -29.57228724 160.83847479 -23 160 C-15.73366082 158.09156541 -9.56177544 154.99214232 -5.44611931 148.57851028 C-1.05369335 140.50998876 -0.13855376 133.97758966 -0.22705078 124.87792969 C-0.2188585 123.50670139 -0.20804382 122.13548668 -0.19483948 120.76429749 C-0.16665994 117.08095439 -0.17466914 113.39851492 -0.18970728 109.7151289 C-0.1991512 105.8513551 -0.17457822 101.98779248 -0.15377808 98.12408447 C-0.11956892 90.82517 -0.11548071 83.52656941 -0.12250316 76.2275908 C-0.12901689 67.91056866 -0.10151191 59.59376447 -0.07130075 51.27680731 C-0.00996739 34.18444987 0.00464795 17.09248622 0 0 Z " fill="#FEFEFE" transform="translate(128,27)"/>
<path d="M0 0 C3.3 0.33 6.6 0.66 10 1 C10 11.56 10 22.12 10 33 C-6.9291382 33 -21.86245401 29.55654271 -36 20 C-36.00364563 20.88932724 -36.00729126 21.77865448 -36.01104736 22.69493103 C-36.04920363 31.15163388 -36.10636335 39.60796185 -36.18390274 48.06439877 C-36.22310495 52.41005208 -36.2554249 56.75551102 -36.27099609 61.10131836 C-36.28634508 65.30967724 -36.32110356 69.51750067 -36.36830902 73.72561836 C-36.38293768 75.31639464 -36.39103012 76.90724744 -36.39188385 78.49809074 C-36.41495996 99.97389069 -40.91315714 116.26549207 -56.2668457 131.78759766 C-68.05763718 143.25252452 -82.01251352 147.85306411 -98.3125 148.3125 C-114.45359674 147.96537964 -127.28820021 142.75556728 -140 133 C-139.505 132.01 -139.505 132.01 -139 131 C-138.40574219 131.32613281 -137.81148438 131.65226563 -137.19921875 131.98828125 C-122.88418522 139.53539846 -106.71708702 141.88076021 -90.9375 137.375 C-75.34169174 131.69652622 -63.42079754 122.68120658 -54.8125 108.5 C-54.17957031 107.4584375 -53.54664063 106.416875 -52.89453125 105.34375 C-47.03718668 93.33359471 -46.39761711 80.32397378 -46.390625 67.25 C-46.37559541 65.6137533 -46.35885853 63.9775215 -46.34051514 62.34130859 C-46.29736431 58.09345696 -46.27696066 53.84580964 -46.26177979 49.59777832 C-46.24201711 45.23954437 -46.20007076 40.88152522 -46.16015625 36.5234375 C-46.08542258 28.01568209 -46.03479013 19.50801223 -46 11 C-45.24273621 11.4148616 -44.48547241 11.82972321 -43.70526123 12.25715637 C-42.71294495 12.79982651 -41.72062866 13.34249664 -40.69824219 13.90161133 C-39.71410339 14.44022293 -38.7299646 14.97883453 -37.71600342 15.5337677 C-25.62686525 22.06007939 -13.52304493 24.30961938 0 26 C0 17.42 0 8.84 0 0 Z " fill="#FD0133" transform="translate(208,81)"/>
<path d="M0 0 C11.22 0 22.44 0 34 0 C34 2.64 34 5.28 34 8 C26.08 8 18.16 8 10 8 C10.00666183 9.66908417 10.01332367 11.33816833 10.02018738 13.05783081 C10.08104923 28.80097656 10.12617753 44.54408567 10.15543652 60.28732109 C10.17087928 68.3807232 10.191919 76.47403724 10.22631836 84.56738281 C10.25630033 91.6248112 10.27559382 98.68217579 10.28226548 105.7396661 C10.28616291 109.47360775 10.29526775 113.20736692 10.31719017 116.94124985 C10.34151367 121.11830351 10.34196437 125.29504363 10.34057617 129.47216797 C10.351362 130.69856491 10.36214783 131.92496185 10.3732605 133.18852234 C10.3362694 143.50063696 8.95505023 152.95584677 1.43359375 160.58984375 C-6.02131371 167.41100068 -12.22516331 168.62066079 -22.25390625 168.421875 C-28.39749095 167.73000102 -33.79881218 165.70765582 -37.765625 160.828125 C-38.17296875 160.22484375 -38.5803125 159.6215625 -39 159 C-38.45601563 159.15855469 -37.91203125 159.31710938 -37.3515625 159.48046875 C-27.07409339 161.75107239 -18.50311861 159.38653453 -9.75 154 C-3.80720711 148.44163185 -0.70998285 140.23866466 -0.24050903 132.27996826 C-0.20585045 129.81286143 -0.20305617 127.34516328 -0.22705078 124.87792969 C-0.2188585 123.50670139 -0.20804382 122.13548668 -0.19483948 120.76429749 C-0.16665994 117.08095439 -0.17466914 113.39851492 -0.18970728 109.7151289 C-0.1991512 105.8513551 -0.17457822 101.98779248 -0.15377808 98.12408447 C-0.11956892 90.82517 -0.11548071 83.52656941 -0.12250316 76.2275908 C-0.12901689 67.91056866 -0.10151191 59.59376447 -0.07130075 51.27680731 C-0.00996739 34.18444987 0.00464795 17.09248622 0 0 Z " fill="#03E1F4" transform="translate(128,27)"/>
<path d="M0 0 C1 1 1 1 1.09765625 2.84765625 C1.06510417 4.8984375 1.03255208 6.94921875 1 9 C0.00742188 9.07476562 -0.98515625 9.14953125 -2.0078125 9.2265625 C-17.11161061 10.59112674 -28.86103708 15.42682567 -40 26 C-40.72960937 26.68835938 -41.45921875 27.37671875 -42.2109375 28.0859375 C-53.19699507 39.40873247 -58.31515643 54.56137989 -58.08203125 70.1171875 C-58.05496094 71.06851563 -58.02789062 72.01984375 -58 73 C-57.98324219 73.88945312 -57.96648438 74.77890625 -57.94921875 75.6953125 C-57.35127451 87.41501969 -52.22753732 97.28425348 -46 107 C-45.505 107.99 -45.505 107.99 -45 109 C-54.1031817 105.29129635 -59.99290636 94.74280962 -63.75 86.1875 C-70.41933146 68.99691296 -70.68915144 53.87038074 -63.64453125 36.6953125 C-56.24513394 21.10301683 -45.05321728 10.39039929 -29 4 C-19.31993132 0.57458948 -10.24367869 -0.92709852 0 0 Z " fill="#01E1F4" transform="translate(107,98)"/>
<path d="M0 0 C2.97 0 5.94 0 9 0 C9 11.22 9 22.44 9 34 C4.05 34 -0.9 34 -6 34 C-9.68162903 35.19652943 -11.90966764 35.99410475 -15 38 C-15.64582031 38.4125 -16.29164062 38.825 -16.95703125 39.25 C-22.13976749 43.09068033 -24.5603187 47.76995058 -26 54 C-26.8826041 62.17411756 -25.90665028 69.33544003 -23 77 C-29.76063359 73.1367808 -34.61948958 67.5002383 -37 60 C-37.9860182 50.91825342 -37.84250841 42.44068336 -32 35 C-25.42427157 28.30971184 -18.25325674 23.96355633 -8.75 23.75 C-5 24 -5 24 0 25 C0 16.75 0 8.5 0 0 Z " fill="#FE0134" transform="translate(109,107)"/>
<path d="M0 0 C2.97 0 5.94 0 9 0 C9.22042969 1.54107422 9.22042969 1.54107422 9.4453125 3.11328125 C10.86122256 12.13452638 13.00991187 19.20111975 18 27 C18.33 27.66 18.66 28.32 19 29 C11.28202529 25.74479978 6.16612604 18.15512673 3 10.6875 C1.63875011 7.14730497 0.65327681 3.73592674 0 0 Z " fill="#FE0238" transform="translate(162,35)"/>
<path d="M0 0 C0.845625 0.20496094 1.69125 0.40992187 2.5625 0.62109375 C8.70600261 2.08017562 14.71390787 3.38371646 21 4 C21 6.64 21 9.28 21 12 C13.26088012 9.33377882 6.01393129 6.74139664 0 1 C0 0.67 0 0.34 0 0 Z " fill="#05D4E5" transform="translate(187,69)"/>
<path d="M0 0 C2.29296875 0.18359375 2.29296875 0.18359375 5 1 C6.80078125 3.28515625 6.80078125 3.28515625 8.3125 6.0625 C8.82425781 6.98160156 9.33601563 7.90070313 9.86328125 8.84765625 C10.23839844 9.55792969 10.61351562 10.26820313 11 11 C5.92772112 8.64732597 2.14218964 5.25810184 0 0 Z " fill="#03D3E4" transform="translate(51,196)"/>
<path d="M0 0 C2.31 0 4.62 0 7 0 C7 1.98 7 3.96 7 6 C2.25 5.125 2.25 5.125 0 4 C0 2.68 0 1.36 0 0 Z " fill="#01E6F9" transform="translate(200,74)"/>
<path d="M0 0 C4.29 0.99 8.58 1.98 13 3 C13 3.33 13 3.66 13 4 C7.80310881 5.14507772 7.80310881 5.14507772 5 5 C2 2.5625 2 2.5625 0 0 Z " fill="#02C1CF" transform="translate(187,69)"/>
</svg>
